<svg width="82" height="26" viewBox="0 0 82 26" fill="none" xmlns="http://www.w3.org/2000/svg">
<path d="M0.210227 5.93182V5.25L5.69886 2.45455V3.54545L1.48864 5.57386L1.52273 5.50568V5.67614L1.48864 5.60795L5.69886 7.63636V8.72727L0.210227 5.93182ZM8.83629 5.0625V9H7.83061V0.272727H8.83629V3.47727H8.92152C9.07493 3.1392 9.30504 2.87074 9.61186 2.67188C9.92152 2.47017 10.3335 2.36932 10.8477 2.36932C11.2937 2.36932 11.6843 2.45881 12.0195 2.63778C12.3548 2.81392 12.6147 3.08523 12.7994 3.4517C12.9869 3.81534 13.0806 4.27841 13.0806 4.84091V9H12.0749V4.90909C12.0749 4.3892 11.94 3.98722 11.6701 3.70312C11.4031 3.41619 11.0323 3.27273 10.5579 3.27273C10.2283 3.27273 9.93288 3.34233 9.67152 3.48153C9.413 3.62074 9.20845 3.82386 9.05788 4.09091C8.91016 4.35795 8.83629 4.68182 8.83629 5.0625ZM17.4911 0.272727V9H16.4343V1.38068H16.3832L14.2525 2.79545V1.72159L16.4343 0.272727H17.4911ZM25.7965 5.11364L20.3079 7.90909V6.81818L24.5181 4.78977L24.484 4.85795V4.6875L24.5181 4.75568L20.3079 2.72727V1.63636L25.7965 4.43182V5.11364ZM0.0568182 24V15.2727H3.00568C3.6875 15.2727 4.24716 15.3892 4.68466 15.6222C5.12216 15.8523 5.44602 16.169 5.65625 16.5724C5.86648 16.9759 5.97159 17.4347 5.97159 17.9489C5.97159 18.4631 5.86648 18.919 5.65625 19.3168C5.44602 19.7145 5.12358 20.027 4.68892 20.2543C4.25426 20.4787 3.69886 20.5909 3.02273 20.5909H0.636364V19.6364H2.98864C3.45455 19.6364 3.82955 19.5682 4.11364 19.4318C4.40057 19.2955 4.60795 19.1023 4.7358 18.8523C4.86648 18.5994 4.93182 18.2983 4.93182 17.9489C4.93182 17.5994 4.86648 17.294 4.7358 17.0327C4.60511 16.7713 4.39631 16.5696 4.10938 16.4276C3.82244 16.2827 3.44318 16.2102 2.97159 16.2102H1.11364V24H0.0568182ZM4.16477 20.0795L6.3125 24H5.08523L2.97159 20.0795H4.16477ZM7.59624 24V17.4545H8.60192V24H7.59624ZM8.1076 16.3636C7.91158 16.3636 7.74254 16.2969 7.6005 16.1634C7.46129 16.0298 7.39169 15.8693 7.39169 15.6818C7.39169 15.4943 7.46129 15.3338 7.6005 15.2003C7.74254 15.0668 7.91158 15 8.1076 15C8.30362 15 8.47124 15.0668 8.61044 15.2003C8.75249 15.3338 8.82351 15.4943 8.82351 15.6818C8.82351 15.8693 8.75249 16.0298 8.61044 16.1634C8.47124 16.2969 8.30362 16.3636 8.1076 16.3636ZM13.2905 17.4545V18.3068H9.89844V17.4545H13.2905ZM10.8871 15.8864H11.8928V22.125C11.8928 22.4091 11.9339 22.6222 12.0163 22.7642C12.1016 22.9034 12.2095 22.9972 12.3402 23.0455C12.4737 23.0909 12.6143 23.1136 12.7621 23.1136C12.8729 23.1136 12.9638 23.108 13.0348 23.0966C13.1058 23.0824 13.1626 23.071 13.2053 23.0625L13.4098 23.9659C13.3416 23.9915 13.2464 24.017 13.1243 24.0426C13.0021 24.071 12.8473 24.0852 12.6598 24.0852C12.3757 24.0852 12.0973 24.0241 11.8246 23.902C11.5547 23.7798 11.3303 23.5938 11.1513 23.3438C10.9751 23.0938 10.8871 22.7784 10.8871 22.3977V15.8864ZM16.7294 24.1534C16.3146 24.1534 15.9382 24.0753 15.6001 23.919C15.2621 23.7599 14.9936 23.5312 14.7947 23.233C14.5959 22.9318 14.4964 22.5682 14.4964 22.142C14.4964 21.767 14.5703 21.4631 14.718 21.2301C14.8658 20.9943 15.0632 20.8097 15.3104 20.6761C15.5575 20.5426 15.8303 20.4432 16.1286 20.3778C16.4297 20.3097 16.7322 20.2557 17.0362 20.2159C17.4339 20.1648 17.7564 20.1264 18.0036 20.1009C18.2536 20.0724 18.4354 20.0256 18.549 19.9602C18.6655 19.8949 18.7237 19.7812 18.7237 19.6193V19.5852C18.7237 19.1648 18.6087 18.8381 18.3786 18.6051C18.1513 18.3722 17.8061 18.2557 17.343 18.2557C16.8629 18.2557 16.4865 18.3608 16.2138 18.571C15.9411 18.7812 15.7493 19.0057 15.6385 19.2443L14.6839 18.9034C14.8544 18.5057 15.0817 18.196 15.3658 17.9744C15.6527 17.75 15.9652 17.5937 16.3033 17.5057C16.6442 17.4148 16.9794 17.3693 17.3089 17.3693C17.5192 17.3693 17.7607 17.3949 18.0334 17.446C18.3089 17.4943 18.5746 17.5952 18.8303 17.7486C19.0888 17.902 19.3033 18.1335 19.4737 18.4432C19.6442 18.7528 19.7294 19.1676 19.7294 19.6875V24H18.7237V23.1136H18.6726C18.6044 23.2557 18.4908 23.4077 18.3317 23.5696C18.1726 23.7315 17.9609 23.8693 17.6967 23.983C17.4325 24.0966 17.1101 24.1534 16.7294 24.1534ZM16.8828 23.25C17.2805 23.25 17.6158 23.1719 17.8885 23.0156C18.1641 22.8594 18.3714 22.6577 18.5107 22.4105C18.6527 22.1634 18.7237 21.9034 18.7237 21.6307V20.7102C18.6811 20.7614 18.5874 20.8082 18.4425 20.8509C18.3004 20.8906 18.1357 20.9261 17.9482 20.9574C17.7635 20.9858 17.5831 21.0114 17.407 21.0341C17.2337 21.054 17.093 21.071 16.9851 21.0852C16.7237 21.1193 16.4794 21.1747 16.2521 21.2514C16.0277 21.3253 15.8459 21.4375 15.7067 21.5881C15.5703 21.7358 15.5021 21.9375 15.5021 22.1932C15.5021 22.5426 15.6314 22.8068 15.8899 22.9858C16.1513 23.1619 16.4822 23.25 16.8828 23.25ZM29.8491 17.4545C29.7979 17.0227 29.5906 16.6875 29.2269 16.4489C28.8633 16.2102 28.4173 16.0909 27.8888 16.0909C27.5025 16.0909 27.1644 16.1534 26.8746 16.2784C26.5877 16.4034 26.3633 16.5753 26.2013 16.794C26.0423 17.0128 25.9627 17.2614 25.9627 17.5398C25.9627 17.7727 26.0181 17.973 26.1289 18.1406C26.2425 18.3054 26.3874 18.4432 26.5636 18.554C26.7397 18.6619 26.9244 18.7514 27.1175 18.8224C27.3107 18.8906 27.4883 18.946 27.6502 18.9886L28.5366 19.2273C28.7638 19.2869 29.0167 19.3693 29.2951 19.4744C29.5763 19.5795 29.8448 19.723 30.1005 19.9048C30.359 20.0838 30.5721 20.3139 30.7397 20.5952C30.9073 20.8764 30.9911 21.2216 30.9911 21.6307C30.9911 22.1023 30.8675 22.5284 30.6204 22.9091C30.3761 23.2898 30.0181 23.5923 29.5465 23.8168C29.0778 24.0412 28.5082 24.1534 27.8377 24.1534C27.2127 24.1534 26.6715 24.0526 26.2141 23.8509C25.7596 23.6491 25.4016 23.3679 25.1403 23.0071C24.8817 22.6463 24.7354 22.2273 24.7013 21.75H25.7923C25.8207 22.0795 25.9315 22.3523 26.1246 22.5682C26.3207 22.7812 26.5678 22.9403 26.8661 23.0455C27.1673 23.1477 27.4911 23.1989 27.8377 23.1989C28.2411 23.1989 28.6033 23.1335 28.9244 23.0028C29.2454 22.8693 29.4996 22.6847 29.6871 22.4489C29.8746 22.2102 29.9684 21.9318 29.9684 21.6136C29.9684 21.3239 29.8874 21.0881 29.7255 20.9062C29.5636 20.7244 29.3505 20.5767 29.0863 20.4631C28.8221 20.3494 28.5366 20.25 28.2298 20.1648L27.1559 19.858C26.4741 19.6619 25.9343 19.3821 25.5366 19.0185C25.1388 18.6548 24.94 18.179 24.94 17.5909C24.94 17.1023 25.0721 16.6761 25.3363 16.3125C25.6033 15.946 25.9613 15.6619 26.4102 15.4602C26.8619 15.2557 27.3661 15.1534 27.9229 15.1534C28.4854 15.1534 28.9854 15.2543 29.4229 15.456C29.8604 15.6548 30.207 15.9276 30.4627 16.2741C30.7212 16.6207 30.8576 17.0142 30.8718 17.4545H29.8491ZM32.5923 24V17.4545H33.598V24H32.5923ZM33.1037 16.3636C32.9077 16.3636 32.7386 16.2969 32.5966 16.1634C32.4574 16.0298 32.3878 15.8693 32.3878 15.6818C32.3878 15.4943 32.4574 15.3338 32.5966 15.2003C32.7386 15.0668 32.9077 15 33.1037 15C33.2997 15 33.4673 15.0668 33.6065 15.2003C33.7486 15.3338 33.8196 15.4943 33.8196 15.6818C33.8196 15.8693 33.7486 16.0298 33.6065 16.1634C33.4673 16.2969 33.2997 16.3636 33.1037 16.3636ZM36.4457 15.2727V24H35.44V15.2727H36.4457ZM43.6399 17.4545L41.2195 24H40.1967L37.7763 17.4545H38.8672L40.674 22.6705H40.7422L42.549 17.4545H43.6399ZM46.6942 24.1534C46.2795 24.1534 45.9031 24.0753 45.565 23.919C45.2269 23.7599 44.9585 23.5312 44.7596 23.233C44.5607 22.9318 44.4613 22.5682 44.4613 22.142C44.4613 21.767 44.5352 21.4631 44.6829 21.2301C44.8306 20.9943 45.0281 20.8097 45.2752 20.6761C45.5224 20.5426 45.7951 20.4432 46.0934 20.3778C46.3945 20.3097 46.6971 20.2557 47.0011 20.2159C47.3988 20.1648 47.7212 20.1264 47.9684 20.1009C48.2184 20.0724 48.4002 20.0256 48.5138 19.9602C48.6303 19.8949 48.6886 19.7812 48.6886 19.6193V19.5852C48.6886 19.1648 48.5735 18.8381 48.3434 18.6051C48.1161 18.3722 47.771 18.2557 47.3079 18.2557C46.8278 18.2557 46.4513 18.3608 46.1786 18.571C45.9059 18.7812 45.7141 19.0057 45.6033 19.2443L44.6488 18.9034C44.8192 18.5057 45.0465 18.196 45.3306 17.9744C45.6175 17.75 45.93 17.5937 46.2681 17.5057C46.609 17.4148 46.9442 17.3693 47.2738 17.3693C47.484 17.3693 47.7255 17.3949 47.9982 17.446C48.2738 17.4943 48.5394 17.5952 48.7951 17.7486C49.0536 17.902 49.2681 18.1335 49.4386 18.4432C49.609 18.7528 49.6942 19.1676 49.6942 19.6875V24H48.6886V23.1136H48.6374C48.5692 23.2557 48.4556 23.4077 48.2965 23.5696C48.1374 23.7315 47.9258 23.8693 47.6616 23.983C47.3974 24.0966 47.0749 24.1534 46.6942 24.1534ZM46.8477 23.25C47.2454 23.25 47.5806 23.1719 47.8533 23.0156C48.1289 22.8594 48.3363 22.6577 48.4755 22.4105C48.6175 22.1634 48.6886 21.9034 48.6886 21.6307V20.7102C48.646 20.7614 48.5522 20.8082 48.4073 20.8509C48.2653 20.8906 48.1005 20.9261 47.913 20.9574C47.7283 20.9858 47.5479 21.0114 47.3718 21.0341C47.1985 21.054 47.0579 21.071 46.9499 21.0852C46.6886 21.1193 46.4442 21.1747 46.217 21.2514C45.9925 21.3253 45.8107 21.4375 45.6715 21.5881C45.5352 21.7358 45.467 21.9375 45.467 22.1932C45.467 22.5426 45.5962 22.8068 45.8548 22.9858C46.1161 23.1619 46.4471 23.25 46.8477 23.25ZM51.8196 20.9318V20.25L57.3082 17.4545V18.5455L53.098 20.5739L53.1321 20.5057V20.6761L53.098 20.608L57.3082 22.6364V23.7273L51.8196 20.9318ZM62.5252 14.8636L59.7127 25.3125H58.7923L61.6048 14.8636H62.5252ZM64.723 20.0625V24H63.7173V15.2727H64.723V18.4773H64.8082C64.9616 18.1392 65.1918 17.8707 65.4986 17.6719C65.8082 17.4702 66.2202 17.3693 66.7344 17.3693C67.1804 17.3693 67.571 17.4588 67.9062 17.6378C68.2415 17.8139 68.5014 18.0852 68.6861 18.4517C68.8736 18.8153 68.9673 19.2784 68.9673 19.8409V24H67.9616V19.9091C67.9616 19.3892 67.8267 18.9872 67.5568 18.7031C67.2898 18.4162 66.919 18.2727 66.4446 18.2727C66.1151 18.2727 65.8196 18.3423 65.5582 18.4815C65.2997 18.6207 65.0952 18.8239 64.9446 19.0909C64.7969 19.358 64.723 19.6818 64.723 20.0625ZM73.3778 15.2727V24H72.321V16.3807H72.2699L70.1392 17.7955V16.7216L72.321 15.2727H73.3778ZM81.6832 20.1136L76.1946 22.9091V21.8182L80.4048 19.7898L80.3707 19.858V19.6875L80.4048 19.7557L76.1946 17.7273V16.6364L81.6832 19.4318V20.1136Z" fill="black"/>
</svg>
